<svg id="Layer_1" data-name="Layer 1" xmlns="http://www.w3.org/2000/svg" viewBox="0 0 256 256"><defs><style>.cls-1{fill:#131313;}.cls-2{fill:none;stroke:#131313;stroke-width:17.16px;}.cls-3{fill:#fff;}</style></defs><title>logo-256</title><g id="Component_5_1" data-name="Component 5 1"><path id="Path_16" data-name="Path 16" class="cls-1" d="M233.17,32.3c-59,22-105.1-16.6-105.1-16.6s0,.1-38.5,108.2c33.6,33.4,103.1,44.4,143.7,22.8C233.67,146.6,233.17,32.3,233.17,32.3Z"/><path id="Path_17" data-name="Path 17" class="cls-1" d="M133.77,7.2c34.7-11.4,74.7-.5,95.5,15.1C180.17,44.3,133.77,7.2,133.77,7.2Z"/><path id="Path_12" data-name="Path 12" class="cls-2" d="M105.07,169.3c-31.4,4.4-86.9,15.1-88.9,17.3-10.3,7.8,34.9,45.1,75,55,33.4,8.5,73.7-9.8,102.6-24.2,22-14.2,14.4-26.4,18.4-30.9"/><path id="Path_14" data-name="Path 14" class="cls-3" d="M249.47,186.6c-116.3,48.8-187.1-37.2-186.7-41.7-17.7,1.9-4-.5-18,1.9,18.1,49.3,145.7,96.3,204.8,47.5A39.73,39.73,0,0,0,249.47,186.6Z"/><path id="Path_15" data-name="Path 15" class="cls-1" d="M247.67,152c-103.4,46.3-170.4-27-170.4-27S66,157.1,66.37,157.2c39,46.5,123.8,63.4,182.7,28.9C249.37,186.1,247.67,152,247.67,152Z"/></g></svg>