<svg id="Layer_1" data-name="Layer 1" xmlns="http://www.w3.org/2000/svg" viewBox="0 0 32 32"><defs><style>.cls-1{fill:#131313;}.cls-2{fill:none;stroke:#131313;stroke-width:2.1px;}.cls-3{fill:#fff;}</style></defs><title>logo-32</title><g id="Component_5_1" data-name="Component 5 1"><path id="Path_16" data-name="Path 16" class="cls-1" d="M28.75,4.9a13.77,13.77,0,0,1-12.9-2l-4.7,13.3c4.1,4.1,12.7,5.4,17.6,2.8C28.85,18.9,28.75,4.9,28.75,4.9Z"/><path id="Path_17" data-name="Path 17" class="cls-1" d="M16.55,1.8a13.46,13.46,0,0,1,11.7,1.9C22.25,6.3,16.55,1.8,16.55,1.8Z"/><path id="Path_12" data-name="Path 12" class="cls-2" d="M13.05,21.7c-3.9.5-10.7,1.8-10.9,2.1-1.3,1,4.3,5.5,9.2,6.7,4.1,1,9-1.2,12.6-3,2.7-1.7,1.8-3.2,2.3-3.8"/><path id="Path_14" data-name="Path 14" class="cls-3" d="M30.75,23.8c-14.3,6-22.9-4.6-22.9-5.1a11,11,0,0,0-2.2.2c2.2,6.1,17.9,11.8,25.1,5.8Z"/><path id="Path_15" data-name="Path 15" class="cls-1" d="M30.55,19.5c-12.7,5.7-20.9-3.3-20.9-3.3s-1.4,3.9-1.3,3.9c4.8,5.7,15.2,7.8,22.4,3.5C30.75,23.7,30.55,19.5,30.55,19.5Z"/></g></svg>
