<svg id="Layer_1" data-name="Layer 1" xmlns="http://www.w3.org/2000/svg" viewBox="0 0 16 16"><defs><style>.cls-1{fill:#131313;}.cls-2{fill:none;stroke:#131313;stroke-width:1.01px;}.cls-3{fill:#fff;}</style></defs><title>logo-16</title><g id="Component_5_1" data-name="Component 5 1"><path id="Path_16" data-name="Path 16" class="cls-1" d="M13.88,3.2a7.18,7.18,0,0,1-6.1-.9L5.48,7.8c2,1.7,6,2.5,8.4,1.4C14,8.9,13.88,3.2,13.88,3.2Z"/><path id="Path_17" data-name="Path 17" class="cls-1" d="M8.18,1.4a6.57,6.57,0,0,1,5.6.8C11,3.5,8.18,1.4,8.18,1.4Z"/><path id="Path_12" data-name="Path 12" class="cls-2" d="M6.38,10.9c-1.8.3-5.1.9-5.2,1-.6.5,2,2.6,4.4,3.2,2,.5,4.3-.6,6-1.4,1.3-.8.8-1.5,1.1-1.8"/><path class="cls-3" d="M14.77,12c-6.8,2.9-11-2.1-11-2.4-1,.1-.2,0-1.1.1,1.1,2.9,8.5,5.6,12,2.8A.9.9,0,0,0,14.77,12Z"/><path id="Path_15" data-name="Path 15" class="cls-1" d="M14.78,9.9a8.74,8.74,0,0,1-10-1.6,13.89,13.89,0,0,0-.6,1.9,9,9,0,0,0,10.7,1.7Z"/></g></svg>