<svg id="Layer_1" data-name="Layer 1" xmlns="http://www.w3.org/2000/svg" viewBox="0 0 64 64"><defs><style>.cls-1{fill:#131313;}.cls-2{fill:none;stroke:#131313;stroke-width:4.35px;}.cls-3{fill:#fff;}</style></defs><title>logo-64</title><g id="Component_5_1" data-name="Component 5 1"><path id="Path_16" data-name="Path 16" class="cls-1" d="M58,7.6c-15,5.6-26.7-4.2-26.7-4.2l-9.8,27.4C30,39.3,47.74,42.1,58,36.6,58.14,36.6,58,7.6,58,7.6Z"/><path id="Path_17" data-name="Path 17" class="cls-1" d="M32.84,1.2c8.8-2.9,19-.1,24.2,3.8C44.54,10.6,32.84,1.2,32.84,1.2Z"/><path id="Path_12" data-name="Path 12" class="cls-2" d="M25.54,42.3c-8,1.1-22,3.8-22.6,4.4-2.6,2,8.8,11.4,19,14,8.5,2.2,18.7-2.5,26-6.1,5.6-3.6,3.7-6.7,4.7-7.8"/><path id="Path_14" data-name="Path 14" class="cls-3" d="M62.14,46.7c-29.5,12.4-47.5-9.4-47.4-10.6-4.5.5-1-.1-4.6.5,4.6,12.5,37,24.4,52,12.1A6.7,6.7,0,0,0,62.14,46.7Z"/><path id="Path_15" data-name="Path 15" class="cls-1" d="M61.74,37.9c-26.3,11.8-43.3-6.8-43.3-6.8s-2.9,8.2-2.8,8.2C25.54,51.1,47,55.4,62,46.6,62.14,46.6,61.74,37.9,61.74,37.9Z"/></g></svg>